<svg data-v-423bf9ae="" xmlns="http://www.w3.org/2000/svg" viewBox="0 0 220.0772071115379 60" class="font"><!----><defs data-v-423bf9ae=""><linearGradient data-v-423bf9ae="" gradientTransform="rotate(25)" id="599fb69d-8a90-4b64-b63c-f740313dffc7" x1="0%" y1="0%" x2="100%" y2="0%"><stop data-v-423bf9ae="" offset="0%" style="stop-color: rgb(66, 15, 20); stop-opacity: 1;"></stop><stop data-v-423bf9ae="" offset="100%" style="stop-color: rgb(197, 84, 94); stop-opacity: 1;"></stop></linearGradient></defs><!----><g data-v-423bf9ae="" id="c7a04e38-aa29-44a4-9bf3-bf535efb9c6a" fill="#ffffff" transform="matrix(5.791505450303629,0,0,5.791505450303629,-4.864867524914786,-14.5945941011381)"><path d="M2.56 2.80L0.84 12.60L7.35 12.60L7.76 10.29L3.91 10.29L5.22 2.80ZM16.77 2.80L14.43 5.40L12.99 2.80L10.05 2.80L12.61 7.43L7.98 12.60L11.13 12.60L13.82 9.60L15.47 12.60L18.41 12.60L15.64 7.57L19.92 2.80ZM18.93 10.43L22.01 10.43L22.15 8.12L19.07 8.12ZM24.12 2.80L22.40 12.60L25.27 12.60L26.99 2.80ZM30.32 8.32C30.32 7.31 30.65 6.48 31.30 5.84C31.95 5.19 32.70 4.87 33.56 4.87C34.25 4.87 34.80 5.07 35.20 5.47C35.61 5.86 35.81 6.40 35.81 7.07C35.81 8.08 35.49 8.91 34.84 9.55C34.19 10.20 33.43 10.53 32.56 10.53C31.89 10.53 31.35 10.33 30.94 9.93C30.53 9.54 30.32 9.00 30.32 8.32ZM33.87 2.52C33.04 2.52 32.25 2.64 31.49 2.89C30.73 3.14 30.03 3.50 29.40 3.98C28.77 4.46 28.26 5.11 27.87 5.91C27.49 6.72 27.30 7.64 27.30 8.67C27.30 9.94 27.76 10.97 28.67 11.73C29.58 12.50 30.78 12.88 32.27 12.88C33.11 12.88 33.91 12.76 34.68 12.51C35.44 12.26 36.14 11.90 36.77 11.42C37.40 10.94 37.90 10.29 38.28 9.49C38.65 8.69 38.84 7.77 38.84 6.75C38.84 5.47 38.38 4.45 37.46 3.67C36.54 2.90 35.34 2.52 33.87 2.52Z"></path></g><!----><!----></svg>